<?xml version="1.0" encoding="utf-8"?>

<!DOCTYPE svg PUBLIC "-//W3C//DTD SVG 1.1//EN" "http://www.w3.org/Graphics/SVG/1.1/DTD/svg11.dtd">
<svg version="1.1" id="Layer_1" xmlns="http://www.w3.org/2000/svg" xmlns:xlink="http://www.w3.org/1999/xlink" x="0px" y="0px"
	 viewBox="-233.1669 -329.4524 1175.728 1647.7717" enable-background="new -233.1669 -329.4524 1175.728 1647.7717"
	 xml:space="preserve">
<g>
	<path fill="#16252D" stroke="#16252D" stroke-width="0.0938" d="M784.5851-7.9339c-8.3011-5.6105-18.4559-6.5621-27.9382-8.8096
		c-9.8268-2.1654-19.7028,0.6398-29.4474,1.8045c-6.8246,1.0009-13.9773,1.3125-20.2769,4.4131
		c-11.3361,6.0701-23.0985,11.418-35.1401,15.9294c0.0657-2.9364,0.3281-5.8402,0.3609-8.7603
		c-21.0643,2.182-41.8006,6.9558-62.783,9.8267c-6.1191,0.9516-11.861-3.0023-17.9801-1.7062
		c-9.3837,1.3453-18.5216,4.1013-27.9872,4.9708c3.56-1.7719,7.2841-3.3303,10.4994-5.7583
		c-5.7418-1.378-11.5658-2.3787-17.439-2.8217C513.4226-0.7484,470.3424-1.7491,427.41-5.4567
		c-15.8147-2.6903-31.8917-0.5087-47.7557,0.7874c-8.4323,0.5743-16.6021,2.8709-24.9197,4.1342
		c7.9567-6.2996,17.9965-8.8096,27.3476-12.2875c9.6956-3.281,19.6535-7.0379,29.9889-7.0543
		c2.4934,2.0671,3.8224,6.0044,7.2676,6.6442c43.2276,4.7083,86.7179,6.5785,130.0771,9.9417
		c11.697,0.7546,23.4758,0.443,35.1237,2.0342c4.4622,0.7546,8.662-1.3782,13.0421-1.7719
		c3.396,1.0173,6.3981,4.1506,10.1876,3.1335c18.1443-3.1335,36.2393-6.5128,54.3998-9.597
		c4.4296-0.443,9.4823-2.9202,13.6163-0.1478c1.9523,1.0173,3.839,2.182,5.9389,2.9366
		c9.3509-2.9857,18.6854-6.5621,27.2653-11.3851c-9.2031-3.1989-19.112-3.7076-28.1677-7.4316
		c-12.0578-4.9052-25.0016-6.7425-37.6664-9.3838c-5.9389-1.4274-11.8938,0.1312-17.5699,1.7553
		c0.3937-1.4765,0.8531-2.9528,1.214-4.4458c-2.7397-2.2475-6.0536-4.9873-9.8432-4.2489
		c-15.6178,3.0185-30.7434,9.1048-46.7385,10.0398c7.0706-5.7418,17.2255-5.3481,25.2311-9.4821
		c-16.1427-9.5478-33.4173,1.8045-50.0032,3.2975c4.3802-2.1818,9.3019-3.1499,13.3867-5.8894
		c-9.0719-2.4115-18.5542-2.2641-27.7413-3.8554c-7.087-2.8873-12.6484-8.9572-20.2604-10.7782
		c-11.7791,1.9688-22.2947,9.3018-34.5493,9.2197c5.5776-3.0514,11.7132-4.8723,17.3403-7.8089
		c-10.2697-6.0699-22.4753-7.8418-32.5151-14.371c-3.6093-2.2311-6.923-4.8723-10.5486-7.0543
		c-2.4115,2.4936-4.3146,5.4467-6.923,7.727c-3.3303,1.9359-7.2676,2.3787-10.7127,4.0685
		c-1.1321,2.2475-1.5586,4.8723-3.1335,6.8739c-4.9052,0.7874-10.2697-0.9845-14.8795,0.935
		c-3.2156,4.6098-3.8388,11.254-9.1048,14.2398c-3.4781,2.313-8.0224,2.0671-11.8119,0.771
		c-5.0856-4.167-8.9246-9.6465-12.7469-14.9454c5.3317,3.2482,9.3018,8.5799,14.9944,11.1228
		c7.1527,0.0657,6.2669-9.0065,9.4166-13.4194c6.8409-2.2477,14.3053-0.0985,21.294-1.9031
		c0.7382-2.8217,1.0335-5.7583,1.657-8.6128c4.3965,0.0328,8.7932,0.9022,13.2063,0.4266
		c3.8552-3.0842,6.1684-8.4816,11.5329-9.3018c5.4955-2.8217,11.09,4.5443,16.2082,0.6072
		c5.2989-9.384,7.5959-19.949,8.0386-30.6287c0.4594,2.4444,0.935,4.9052,1.4108,7.3495c1.214-5.9387,1.3125-12.4023,4.3474-17.7668
		c5.102-3.6257,12.8452-4.9216,14.7647-11.7955c4.331-15.6833,9.269-31.219,13.6-46.8861
		c7.3331,0.2295,15.9787-0.8038,20.4245-7.4316c3.0677-6.4471,3.3303-13.9116,2.4608-20.8839
		c-1.2139-8.5142-7.5463-14.8304-12.2382-21.6058c-8.0715-12.1892-16.2412-24.3125-23.9845-36.715
		c-3.0514-4.4458-5.5779-10.1055-11.1557-11.8445c-17.3238-6.1356-34.5493-12.9602-52.7592-15.9951
		c-13.3048-3.1006-28.2662-3.6419-40.4883,3.2811c-19.5387,14.7319-35.9439,33.2371-50.1179,53.1038
		c-5.3481,7.4643-2.6414,17.2419-5.0694,25.6086c-5.7254,3.3796-11.9595,5.9061-18.3738,7.5956
		c2.149-4.9544,5.6762-9.0555,8.7604-13.4196c-5.0199,3.9539-8.9901,9.4987-15.093,11.8774
		c-9.9905-0.6725-19.2269-5.9221-29.3981-5.6926c-5.6597,0.2461-13.5836-1.1811-16.2739,5.3153
		c2.9036-1.8864,5.7581-5.0363,9.5313-4.4622c4.7576,0.6891,9.3183,2.2639,14.0428,3.1006
		c6.6442,1.4108,14.0923,0.8695,19.6535,5.381c-2.313,1.5422-5.3481,2.1982-7.1689,4.3803
		c5.7909,24.2632,24.6079,42.7191,30.9729,66.7529c2.2968,8.1862,5.0037,16.2739,6.3654,24.69
		c-5.0529-10.7784-7.8417-22.4261-12.3696-33.4177c-3.1827-7.4478-7.7432-14.1904-11.4344-21.3759
		c-6.4802-13.0095-13.1242-26.0351-20.4083-38.5524c-7.4971-1.9031-15.4702-3.2484-23.1806-2.4117
		c-6.2341,6.7427-8.4159,16.4053-15.2077,22.6229c-7.3167,4.331-16.1427,4.6264-24.1978,6.8082
		c-15.6835,1.9195-31.5965,2.5427-47.1158,5.709c-14.5024,3.4615-22.6065,17.0943-30.0874,28.7585
		c-18.3902,30.6615-33.319,64.1281-38.864,99.6619c-0.0807,0.0699-0.1598,0.1168-0.2391,0.1664l-0.5435,2.8885
		c4.5259,33.2415,8.6428,66.5318,13.7592,99.6911c4.331,29.0536,7.3988,58.4519,15.3389,86.8166
		c-3.7897-0.4921-7.53-1.3288-11.3523-1.5585c-0.64,11.5001,0.0819,23.0329-0.2135,34.5495
		c-0.0819,4.7083-1.0662,9.4166-3.2646,13.6328c-1.099-7.6448-0.164-15.503-2.0999-23.0329
		c-4.2651,13.7476-5.6269,28.3482-6.3158,42.7028c11.5327-17.9801,22.9345-37.043,40.5537-49.7899
		c-2.5265,4.856-5.5288,9.433-8.5471,13.9936c-17.7834,28.2335-33.5324,57.8778-44.9178,89.2775
		c-2.0014,5.5941-3.6091,11.8281-8.5471,15.6506c-0.7053-3.0842-1.1647-6.2011-1.5256-9.3346
		c-1.7391,5.5778-1.9359,11.5165-1.7719,17.3075c6.3817-5.266,8.7934-13.4359,12.8947-20.326
		c7.9727-15.2406,18.062-29.2178,26.4943-44.1794c12.8454-20.0143,22.5244-42.588,39.553-59.5675
		c0.3118,3.4779-0.1804,6.9887-1.7881,10.1221c-7.3331,15.6177-16.7497,30.12-25.5103,44.9503
		c-5.9549,10.483-11.746,21.0808-17.9637,31.4161c-13.157,22.8361-24.0828,46.8534-36.3048,70.1816
		c-5.2498,9.6627-9.3347,19.9489-15.1094,29.2999c-0.6396-1.7554-1.214-3.5108-1.7553-5.2826
		c-2.1654,6.0536-2.592,12.6321-5.2496,18.5544c-9.269,20.2769-19.0136,40.357-27.5935,60.9456
		c-1.7062,2.9857-0.7712,6.8409,2.149,8.6783c7.415,4.331,16.4053,4.8231,23.968,8.7769c4.7902,2.6412,4.8887,8.4486,3.9864,13.1898
		c-3.4941,20.6214-6.48,41.4397-12.632,61.5033c-8.219,30.1693-19.8503,59.2886-29.2178,89.0969
		c-3.8714,12.6321-8.3336,25.0837-13.5998,37.2071c-3.9045,8.9081-9.4166,16.9795-13.7148,25.7071
		c-4.3146,8.6619-6.1848,18.3739-11.09,26.7734c-2.953,5.1348-8.0713,8.7439-10.3847,14.3053
		c3.1008-2.3624,6.3162-4.577,9.6629-6.5621c-5.9061,16.7662-13.2392,33.1222-16.1922,50.7906
		c-3.2154-6.3652-0.5413-13.5179-0.6068-20.2277c-2.0344,2.4279-3.9375,5.02-5.1679,7.9729
		c-6.4307,17.4552-10.9093,35.7963-19.8175,52.2672c-6.316,12.0085-11.7791,25.2149-22.508,34.0901
		c4.7247-14.3382,12.5008-27.446,18.0294-41.4724c-18.5052,21.5073-35.222,44.491-51.857,67.4584
		c-14.5187,21.2447-23.0658,45.705-34.9924,68.3607c-12.7305,26.7405-27.1507,52.9398-36.19,81.2388
		c10.8111-4.3802,20.3589-11.3853,31.3833-15.3062c-9.1213,8.0714-19.4566,14.6171-29.5294,21.4253
		c-8.2191,5.1512-15.4046,11.8282-24.0665,16.3068c-2.4445,12.4679-11.5494,22.2783-13.5836,34.8447
		c-1.3617,5.7747-1.6569,11.7626-1.3288,17.7013c0.5578,8.219-0.9843,16.3724-1.8866,24.5094
		c-1.1811,10.9259-6.4473,22.0159-2.2475,32.9418c4.7576,11.8282,11.8938,22.8689,21.0644,31.777
		c8.4323,7.2184,16.8318,14.8303,26.9867,19.5714c4.2818,0.0657,8.5143-0.7545,12.5008-2.2966
		c-13.1735-4.5115-23.6728-13.8953-34.5003-22.262c-12.2055-9.7611-19.8175-24.8212-20.9331-40.3569
		c0.6234,0.3281,1.8538,0.9679,2.4772,1.296c3.6584,14.3711,11.7626,27.8397,23.3448,37.2072
		c-0.0821-3.4124-0.4266-6.7754-0.5414-10.1549c7.9565,6.4309,13.928,16.4545,24.493,18.8004
		c5.6926,1.5093,9.3674-3.9044,12.7961-7.4152c4.3474-5.2168,10.9423-10.4174,9.9416-17.9966
		c-0.6726-7.6448-6.7754-12.7468-11.5821-18.0129c3.9209,0.0656,7.8253,0.525,11.7462,0.6069
		c0.2789-9.0884-10.4338-10.204-16.2577-14.2233c5.2333-3.5763,11.7625-1.214,17.6192-1.5914
		c0.6398-5.5449,0.6891-11.4015-1.296-16.6676c-6.6277-9.6792-18.6692-12.3368-28.5123-17.406
		c8.1371-1.3945,16.6185,0,23.6892,4.3473c2.7397,1.0172,5.545,3.8718,8.5636,3.0515c6.2011-8.0057,8.8752-17.9966,14.0756-26.5765
		c4.2162,0.8859,8.2026,2.6412,12.3859,3.7239c-9.4493-6.0698-20.8018-8.1862-30.5629-13.6982
		c9.7939,0.1804,18.5051,5.348,28.1185,6.4143c6.7426-0.41,11.172-6.3159,15.421-10.8602
		c9.0229-10.0728,12.5008-23.3938,18.6692-35.1236c7.9729-17.7341,18.7349-34.0081,28.0201-51.0367
		c5.7583-10.647,12.4189-20.7527,18.5709-31.1536c-2.8873,1.6568-5.6926,3.4779-8.6292,5.0856
		c4.167-9.0721,10.3025-17.0287,15.7983-25.2969c11.91-16.5693,23.9516-33.0566,35.5993-49.8064
		c1.7717-2.6084,3.3794-5.3317,4.7247-8.1862c-17.0122,7.5792-31.498,20.3754-49.5438,25.625
		c8.5142-6.9886,18.3245-12.1563,27.331-18.4724c15.2241-9.3018,29.9724-19.5715,46.181-27.0522
		c0.2788,0.6891,0.8529,2.0507,1.1319,2.7397c4.6262-3.7076,8.4978-8.301,13.4686-11.5658
		c10.4666-6.9722,20.4409-14.617,30.8912-21.6057c1.9357-1.5913,4.6262-2.8054,5.266-5.4302
		c-0.5251-0.3117-1.5748-0.9022-2.0999-1.1975c2.7888-4.2817,6.4636-7.8909,9.3509-12.0907
		c14.0266-22.3112,30.1857-43.1951,44.9178-65.0305c9.8922-16.9794,22.9509-31.7278,34.9102-47.1979
		c22.2618-27.8397,46.2301-54.3013,71.609-79.3193c6.1684-5.8895,11.5658-12.7633,18.9646-17.1927
		c-2.4279,3.6912-5.6107,6.9066-7.563,10.9094c0.6398,1.296,1.2961,2.5921,1.9688,3.9045
		c8.9736,9.8596,16.1755,21.13,24.7062,31.3504c25.8875,34.6807,52.4147,68.8693,79.6311,102.4837
		c6.6935,9.6134,15.257,17.6356,22.2785,26.9866c5.5284,7.1362,12.517,13.7639,14.3708,23.0001
		c1.2961,6.8738,7.1855,13.5507,3.8388,20.687c-4.3144,11.8282-10.0727,23.3284-11.7953,35.944
		c-2.0014,14.8467-2.7231,29.8248-4.2489,44.7208c-0.6727,8.6292,0.0983,17.3075-0.7055,25.9367
		c-2.1328,25.2969-0.7546,50.7086-1.3944,76.0547c-0.607,13.0587-1.8702,26.1007-2.2968,39.1758
		c-0.9024,15.3388-0.5741,31.0059-5.4464,45.787c-2.5429,13.7476-6.2341,27.2491-8.2847,41.0952
		c-3.2811,16.2904-7.7761,32.3182-10.204,48.7728c-1.9359,20.9166-11.2047,40.1108-16.9794,60.0924
		c-2.2313,8.99-2.6086,18.2755-3.6255,27.4459c-0.1314,3.806-1.1649,8.9901,2.7231,11.3853
		c9.2854,4.2982,19.3583,6.5293,29.4473,8.0222c13.1899,2.9529,26.8063,6.8903,40.3735,4.1833
		c3.1661-2.4773,4.8395-6.316,7.4316-9.3018c5.2168-2.5592,8.8751,3.1006,12.2711,6.1191
		c5.873,5.3645,10.4664,12.6648,17.7997,16.1099c14.4365,2.4116,28.5288,6.6442,43.0964,8.2355
		c15.4867,2.264,30.8091,6.3981,46.5583,6.2012c13.6819-0.082,27.0522,4.4623,40.7996,3.0677
		c0.1971-7.8088,0.0493-15.6342,0.1478-23.4266c-0.7217-0.0657-2.1656-0.1804-2.8873-0.2461
		c1.2632,6.6934,2.5265,13.5343,1.5748,20.3752c-1.6569,2.543-4.7737,2.1655-7.3987,2.2148
		c-0.2952-5.9551,1.8376-11.7954,1.1321-17.7014c-0.2133-2.5754-2.7398-3.6418-4.6426-4.7574
		c-17.3076-8.5798-34.4182-17.6028-52.2016-25.1163c-9.105-2.0178-18.4231,0.246-27.5938,0.6398
		c4.9873-3.5107,11.0245-4.6427,16.799-6.1848c1.3946-0.5579,3.5109-0.5579,3.6585-2.4772
		c-3.0349-3.9209-6.6442-7.3496-9.6463-11.2869c-6.1027-7.2675-9.3181-16.5692-16.192-23.2297
		c-4.3639-4.3475-7.3169-9.8433-9.269-15.6343c-2.2968-6.9066-6.7097-12.7305-10.0072-19.1285c3.1827-0.1968,6.3981-0.361,9.5806,0
		c3.1825,3.5271,5.7254,7.6121,8.1534,11.697c0.3609-3.4779-1.4599-7.9894,1.7391-10.4994
		c4.8887-2.0015,11.2047-0.3118,15.4372-3.5599c-2.3294-0.2133-4.6262-0.4922-6.8901-0.8367
		c-0.4101-15.4045,1.3618-30.8092,2.0835-46.1971c1.739-35.1729,5.1513-70.2311,8.2847-105.3054
		c2.8874-34.4019,6.0863-68.7709,10.4828-102.9922c11.5986-58.2878,28.0695-116.0179,31.0716-175.651
		c1.1649-7.9401-5.0035-13.8952-8.662-20.2277c-18.8987-30.2513-31.9081-63.6523-44.3925-96.9386
		c-8.2026-22.0486-14.6171-44.7371-23.6236-66.4905c-6.0701-16.1263-13.764-31.6293-19.0301-48.0509
		c-2.4936-9.0229-5.8239-17.8325-7.9239-26.9375c1.5586-1.8045,3.3632-3.3795,5.1677-4.9379
		c0.2461,3.1498,0.4758,6.3652,1.5258,9.4002c-1.2796-6.7589,3.8716-11.5165,6.3324-17.1927
		c0.5905-5.8567,0.1804-12.386-2.8874-17.5536c-0.1147,2.8709-0.2461,5.7418-0.4101,8.6292
		c-3.5107-8.0222-4.5114-16.799-6.9886-25.1329c-3.9537-13.3539-6.3324-27.1179-8.055-40.9311
		c-3.9864-29.513-8.6292-58.9276-14.4367-88.1454c-6.6931-38.2735-11.139-76.8914-17.6192-115.2142
		c-1.3778-7.3003,0.1971-14.699,0.9352-21.983c2.4279-24.936,5.0856-49.8556,8.0058-74.726
		c0.5085-3.6748,0.8857-7.8418,3.8388-10.4499c6.9886,0.7874,13.9937,1.4763,21.0152,2.1652
		c7.4645,1.2632,14.7976,3.6093,22.4587,3.4288c9.1871-0.115,18.2919,1.099,27.3967,2.1492
		c26.0353,2.6246,52.1688,4.3965,78.007,8.4978c15.142,2.4279,30.4811,1.099,45.7052,0.4922
		c9.6954-0.8038,19.44-1.3782,29.0701-2.8709c4.577-0.7874,9.9415-1.6077,12.6648-5.8568c5.7583-9.761,6.923-21.622,12.7798-31.2685
		c5.2496-1.3778,10.7453-0.2788,16.028,0.3118c13.4686,2.2147,27.1832,2.0016,40.7175,3.675
		c10.8769,0.492,21.7863,2.6246,32.6796,1.4435c0.5575-0.3116,1.6569-0.9188,2.2145-1.2304
		c-0.8531-0.3773-2.5427-1.1319-3.3958-1.5092c6.0701-4.7576,13.0916-8.4487,18.2262-14.2889
		c1.7555-6.4638,2.0014-13.3541,4.938-19.4732c2.7888-6.4307,8.2191-11.1883,11.3688-17.4059
		C793.7722,0.2194,789.6216-5.0959,784.5851-7.9339z M-153.2868,1144.6827c-4.3638-0.1969-8.6783-0.771-13.0258-1.0499
		c2.0179,3.1826,5.4465,5.7091,6.3981,9.4166c-3.7076,5.4137-12.7797,5.6106-17.1764,0.8367
		c-5.8894-5.5122-12.8289-11.254-14.7483-19.4402c6.3161-0.8203,12.5008,1.1155,18.702,1.985
		C-166.0173,1137.4972-158.3396,1139.0721-153.2868,1144.6827z M351.4371-220.3491c2.4772-5.266,4.61-12.025,10.9424-13.6983
		c7.5792-1.8374,18.6035,2.1818,19.0629,11.0735c-3.1989-1.706-4.6919-5.2169-7.4152-7.4807
		c-3.3303-1.0173-6.9394-1.5094-10.368-0.8203c-8.0879,3.855-11.2704,12.9436-13.9609,20.8346
		c-2.2475,5.9059-1.7881,12.3204-1.3287,18.4888c0.2952,4.7409,3.9864,8.1369,6.4472,11.8774c-2.1164-0.2954-4.9709,0-5.7419-2.5757
		c-1.9357-5.0856-2.8873-10.4992-3.8716-15.8473C343.448-206.4375,348.517-213.3933,351.4371-220.3491z M213.4528,44.3334
		l0.7546-1.4603c6.923-1.8208,14.0921-2.641,21.2447-2.7396c10.7619-0.443,21.1136,3.2318,31.1536,6.6278
		C248.8715,46.6956,231.0884,45.9739,213.4528,44.3334z M319.1353-64.8272c-14.1085-0.3773-28.2005,0.8859-42.2764,1.6569
		c0.279-1.3946,1.1319-2.2477,2.5429-2.5593c7.4807-3.0185,15.3879-4.8066,23.0002-7.4973
		c-1.7391-4.4458-6.2177-7.2346-10.9916-6.7423c-31.9246-0.2625-63.8822-0.0821-95.7575,1.706
		c-1.5913,0.1312-3.0678-0.492-4.495-1.0335c30.727-7.1853,62.4385-6.8244,93.7887-7.3988
		c-8.6454-16.028-21.6713-29.0536-32.6792-43.4082c-9.105-12.1399-19.6206-23.0987-29.7918-34.3032
		c19.4072,12.5499,33.811,30.9893,48.297,48.6414c8.465,9.0886,15.2896,19.4894,22.6393,29.4309
		c2.3951,0.3611,4.8394,0.3937,7.2181,0.968c3.5107,2.6248,6.0863,6.2341,9.3509,9.1214c3.8718,1.263,8.2519,0.7546,11.8612,2.92
		c17.127,9.0722,32.4823,21.0479,48.6909,31.6129c9.4657,6.7754,19.6699,12.6648,28.2334,20.6213
		c-0.8203,3.4453-6.0536,2.8217-8.9736,3.3139c-15.9132-13.4194-32.6139-25.9204-49.9706-37.4367
		C333.2766-59.0197,326.9442-64.1055,319.1353-64.8272z"/>
	<path opacity="0.93" fill="#A7B9C2" stroke="#A7B9C2" stroke-width="0.0938" enable-background="new    " d="M362.3795-234.0475
		c7.5792-1.8374,18.6035,2.1819,19.0629,11.0735c-3.199-1.7061-4.6919-5.2169-7.4152-7.4808
		c-3.3303-1.0171-6.9394-1.5093-10.3681-0.8203c-8.0878,3.8552-11.2704,12.9437-13.9609,20.8347
		c-2.2475,5.9059-1.7882,12.3204-1.3288,18.4887c0.2953,4.7411,3.9865,8.137,6.4473,11.8774c-2.1162-0.2953-4.9708,0-5.7419-2.5756
		c-1.9358-5.0856-2.8873-10.4994-3.8716-15.8475c-1.7554-7.9402,3.3138-14.896,6.234-21.8518
		C353.9144-225.6152,356.0471-232.3741,362.3795-234.0475z"/>
	<path opacity="0.93" fill="#A7B9C2" stroke="#A7B9C2" stroke-width="0.0938" enable-background="new    " d="M222.4755-164.4072
		c19.4074,12.55,33.8112,30.9895,48.2971,48.6416c8.4651,9.0885,15.2896,19.4894,22.6392,29.431
		c2.3951,0.3609,4.8396,0.3937,7.2183,0.9679c3.5107,2.6249,6.0864,6.234,9.351,9.1213c3.8716,1.2632,8.2518,0.7546,11.861,2.9201
		c17.127,9.0721,32.4824,21.0479,48.6908,31.6129c9.4658,6.7754,19.6699,12.6649,28.2334,20.6214
		c-0.8203,3.4451-6.0535,2.8217-8.9737,3.3139c-15.9131-13.4195-32.6136-25.9203-49.9704-37.4368
		c-6.5457-3.806-12.8781-8.8916-20.687-9.6135c-14.1085-0.3773-28.2006,0.8859-42.2763,1.6569
		c0.2789-1.3944,1.132-2.2475,2.5428-2.5592c7.4808-3.0186,15.3881-4.8067,23.0002-7.4972
		c-1.739-4.4458-6.2176-7.2347-10.9915-6.7426c-31.9246-0.2625-63.8821-0.082-95.7575,1.7061
		c-1.5913,0.1312-3.0678-0.4922-4.4951-1.0335c30.727-7.1855,62.4384-6.8246,93.7888-7.3988
		c-8.6456-16.0279-21.6713-29.0537-32.6792-43.4083C243.1625-142.2437,232.6468-153.2024,222.4755-164.4072z"/>
	<path fill="#16252D" stroke="#16252D" stroke-width="0.0938" d="M766.2604-100.8204c4.6427-1.903,9.8923-4.8395,14.7975-1.903
		c14.3382,6.6277,30.6614,4.3966,45.5246,9.0393c9.3674,2.9037,19.2598,2.5592,28.8404,4.2982
		c9.187,2.2147,18.7349,1.2796,28.0695,2.6084c7.9893,0.0328,16.8154,3.0514,24.1978-1.2796
		c1.7717-0.8038,3.8059-2.0835,5.791-0.9843c4.3966,2.2967,8.6292,5.3317,11.5001,9.4658
		c1.3944,5.5614-0.0656,11.4181-3.5764,15.8967c-4.1997,5.0692-3.0513,12.3204-6.6605,17.6029
		c-15.6014,4.6591-32.0231,1.2468-47.7885-0.7218c-5.627-0.7547-11.4345,1.0335-15.9951,4.2818
		c-6.2177,6.2176-5.2169,16.1264-9.8596,23.0986c-9.7612,6.7097-22.2784,3.6748-33.3027,3.6748
		c-1.3616,2.346-1.8866,5.02-2.4772,7.6285c0.2133-4.3474-0.6727-8.662-2.1819-12.7305c-4.9543,1.1648-5.791,6.2668-7.2511,10.3025
		c-5.3646-2.5592-10.2204-6.2668-16.0444-7.7433c-7.53-1.903-15.3389-2.2147-23.0001-3.3138
		c-13.1735-1.8538-26.4125,0.1805-39.4874,1.7061c5.7747-12.8125,14.3875-26.6914,28.8732-30.5138
		c6.5949-0.5742,14.6498,0.4265,18.7349,6.3324c4.6918,6.2176,11.254,11.336,13.7475,18.9809
		c1.0992,2.5592,1.4601,6.0535,4.8724,6.4801c0.771-2.674,3.1006-5.9387,0.7546-8.4651
		c-3.6584-5.0692-8.2519-9.4002-11.8282-14.5186c-6.234-10.2041-19.3254-12.5992-30.2513-13.9937
		c-11.1064,3.2482-19.3746,12.1235-26.1007,21.1464c3.5599-9.4494,12.0743-15.503,20.326-20.605
		c5.9059-3.0186,3.6912-10.9587,7.6941-15.4045c2.592-3.035,5.6107-5.6598,8.5636-8.3175
		c-2.2476,4.5607-5.2498,8.6948-7.4152,13.3047c3.5272-0.7218,7.3168-1.214,10.3517-3.3139
		c3.9373-4.6755,5.1841-11.0243,5.8567-16.9466c-5.0364,4.249-2.7232,13.7476-9.8596,15.9951
		c1.4929-5.709,4.1669-11.0079,5.9551-16.6185c0.8038-1.8702-0.7383-3.5599-1.3289-5.2005
		c-2.6905-5.3481,4.1998-10.3517,9.0885-8.3175c0.4429,2.0178,5.2169,2.8381,3.7733-0.0984
		C768.4424-100.1806,766.9823-100.6071,766.2604-100.8204 M773.9381-101.6899C774.1185-96.1777,778.8104-104.2327,773.9381-101.6899
		 M900.6851-83.6769c-0.1476,2.3131,3.8716,2.2803,5.0529,0.9023C905.9183-85.1534,901.8171-85.0878,900.6851-83.6769
		 M774.0365-78.3616c0.0328,0.4922,0.082,1.4929,0.1149,2.0014c7.0051,1.2632,14.092,2.1163,21.1628,3.1334
		c14.2725,0.9843,28.3646,4.0685,42.7192,4.1997c-3.2811-2.8873-7.9402-2.3952-11.9758-2.9529
		C808.668-73.7353,791.3441-76.0321,774.0365-78.3616 M741.7346-61.333c0.082,0.9843,0.2297,2.9529,0.2953,3.9373
		c4.1013,1.1976,8.3503,1.9194,12.6157,2.2311C753.6448-60.8244,746.4265-61.8251,741.7346-61.333 M769.4431-49.7345
		c0.0164,2.3295,0.8203,4.3146,2.428,5.9715c10.2861-2.0014,20.9659-2.6412,31.252-0.2132
		c6.9559,1.7061,14.0593,2.6084,21.2284,2.7069c4.7247,2.9858,4.856,9.4658,4.4951,14.4366
		c-1.8865,2.6084-4.413,4.6427-6.5457,7.0051c5.6107-2.9858,13.6821,0.1312,17.3732-6.152
		c5.545-8.1862-1.2632-21.655-11.5001-20.3753c-6.2175,0.7054-12.3203-0.8695-18.4723-1.4765
		C796.2492-47.9791,782.9282-50.7352,769.4431-49.7345 M805.3705-19.2863c-0.328,2.3952,3.7896,2.3952,4.938,0.9515
		C810.5218-20.6315,806.4861-20.6972,805.3705-19.2863z"/>
	<path opacity="0.93" fill="#A7B9C2" stroke="#A7B9C2" stroke-width="0.0938" enable-background="new    " d="M773.9381-101.6899
		C778.8104-104.2327,774.1185-96.1777,773.9381-101.6899z"/>
	<path opacity="0.93" fill="#A7B9C2" stroke="#A7B9C2" stroke-width="0.0938" enable-background="new    " d="M765.3909-99.8689
		l0.8695-0.9515c0.7219,0.2133,2.1819,0.6398,2.9037,0.8531C770.6078-97.0308,765.8339-97.8511,765.3909-99.8689z"/>
	<path opacity="0.93" fill="#A7B9C2" stroke="#A7B9C2" stroke-width="0.0938" enable-background="new    " d="M752.7426-78.7718
		c1.5748-4.1505,2.0507-8.6128,3.5599-12.7797c0.5906,1.6405,2.1327,3.3303,1.3289,5.2005
		c-1.7883,5.6106-4.4622,10.9095-5.9551,16.6185c7.1364-2.2475,4.8231-11.7461,9.8596-15.9951
		c-0.6725,5.9223-1.9194,12.2711-5.8567,16.9466c-3.0349,2.0999-6.8245,2.592-10.3517,3.3139
		C747.4928-70.077,750.495-74.2111,752.7426-78.7718z"/>
	<path opacity="0.93" fill="#A7B9C2" stroke="#A7B9C2" stroke-width="0.0938" enable-background="new    " d="M900.6851-83.6769
		c1.132-1.4109,5.2333-1.4765,5.0529,0.9023C904.5567-81.3966,900.5374-81.3638,900.6851-83.6769z"/>
	<path opacity="0.93" fill="#A7B9C2" stroke="#A7B9C2" stroke-width="0.0938" enable-background="new    " d="M774.0365-78.3616
		c17.3076,2.3295,34.6315,4.6263,52.0211,6.3816c4.0356,0.5578,8.6948,0.0656,11.9758,2.9529
		c-14.3546-0.1312-28.4468-3.2154-42.7192-4.1997c-7.0708-1.0171-14.1578-1.8702-21.1628-3.1334
		C774.1185-76.8687,774.0693-77.8695,774.0365-78.3616z"/>
	<path opacity="0.93" fill="#A7B9C2" stroke="#A7B9C2" stroke-width="0.0938" enable-background="new    " d="M803.1395-20.8449
		c-4.9544,1.1649-5.7911,6.2667-7.2512,10.3025c-5.3646-2.5591-10.2204-6.2667-16.0444-7.7434
		c-7.53-1.9029-15.3389-2.2145-23-3.3137c-13.1735-1.8538-26.4126,0.1804-39.4875,1.706
		c5.7747-12.8124,14.3875-26.6914,28.8732-30.5135c6.5949-0.5743,14.65,0.4266,18.7349,6.3322
		c4.6918,6.2177,11.254,11.3361,13.7474,18.981c1.0994,2.5593,1.4603,6.0534,4.8726,6.48c0.771-2.6739,3.1006-5.9385,0.7548-8.465
		c-3.6586-5.0694-8.2519-9.4002-11.8283-14.5188c-6.2339-10.204-19.3254-12.5991-30.2514-13.9937
		c-11.1064,3.2484-19.3745,12.1237-26.1006,21.1466c-1.2632,1.5748-2.9202,2.8052-4.9872,2.9202
		c-10.0728,2.2637-19.5221-4.0522-29.5952-2.5593c-6.8408-3.7404-14.6662-4.2819-22.0978-6.0863
		c-5.5776-1.3618-11.4509,0.2295-16.963-1.3782c-6.5785-1.542-11.451-7.3988-18.2262-8.2355
		c-4.5115,0.7874-8.8425,2.4608-13.4194,2.8545c-8.0552,0.9516-15.011-4.4622-22.9348-4.8066
		c-6.0372-0.7382-11.7791,1.8538-17.7832,1.7717c-11.5822,0-22.9017-2.7397-34.287-4.4786
		c-6.2503-0.7219-9.4821-7.1362-15.2568-9.0065c-9.5151-4.3639-20.3589,1.8866-29.8084-2.8873
		c-5.5778-2.4444-14.4203-4.8232-13.8133-12.4844c-0.6725-8.1862,3.0351-15.7328,5.2005-23.4103
		c2.3787-6.5785,3.9537-14.1577,9.7775-18.6856c4.2817-3.7567,9.8431-6.4309,12.4187-11.7953
		c5.8896-11.7626,10.0895-24.3946,17.2419-35.501c3.4453-5.2989,9.0229-8.5471,13.5015-12.8454
		c6.6771-5.2989,6.152-14.7319,6.7592-22.4259c0.7217-7.4316-8.3011-16.8318-8.662-15.6671
		c-1.4601-4.1342-3.7897-7.8582-6.3489-11.3687c-3.888-5.2989-5.7254-11.7462-9.433-17.127
		c-8.8096-8.8098-13.9281-20.4082-19.8996-31.1537c-5.6105-7.1527-14.6662-10.6634-23.2299-12.8945
		c-5.266-1.4763-9.8922-5.3645-15.585-4.938c-6.316,0.5251-11.4673-4.2489-17.6192-4.823
		c-5.1677-3.6255-12.0578-1.493-17.931-3.1499c-6.1355-1.6077-12.517-1.0992-18.5214,0.8038
		c-6.3324,0.886-12.4515,3.5436-17.16,7.8908c-6.9229,6.8248-15.2567,12.1892-20.9003,20.2442
		c-7.4643,10.4501-17.291,18.981-24.3944,29.6935c-5.8075,8.6292-7.2348,19.3745-13.0258,28.0037
		c-3.0842,4.364-6.6114,8.4652-8.7604,13.4196c6.4143-1.6896,12.6484-4.216,18.3738-7.5956
		c2.4279-8.3666-0.2787-18.1443,5.0694-25.6086c14.174-19.8667,30.5792-38.3719,50.1179-53.1038
		c12.222-6.923,27.1834-6.3817,40.4883-3.2811c18.2098,3.0349,35.4353,9.8596,52.7592,15.9951
		c5.5778,1.739,8.1043,7.3988,11.1557,11.8445c7.7432,12.4025,15.913,24.5258,23.9845,36.715
		c4.6919,6.7754,11.0243,13.0916,12.2382,21.6058c0.8696,6.9722,0.607,14.4367-2.4608,20.8839
		c-4.4457,6.6278-13.0914,7.6611-20.4245,7.4316c-4.331,15.6671-9.269,31.2028-13.6,46.8861
		c-1.9195,6.8739-9.6627,8.1698-14.7647,11.7955c-3.0349,5.3645-3.1335,11.8281-4.3474,17.7668
		c-0.4758-2.4444-0.9514-4.9052-1.4108-7.3495c-0.4427,10.6796-2.7397,21.2447-8.0386,30.6287
		c-5.1182,3.9371-10.7127-3.4288-16.2082-0.6072c-5.3646,0.8203-7.6777,6.2177-11.5329,9.3018
		c-4.4131,0.4756-8.8098-0.3937-13.2063-0.4266c-0.6234,2.8545-0.9188,5.7911-1.657,8.6128
		c-6.9886,1.8045-14.4531-0.3446-21.294,1.9031c-3.1497,4.4129-2.2639,13.4851-9.4166,13.4194
		c-5.6926-2.5429-9.6627-7.8746-14.9944-11.1228c3.8223,5.2989,7.6613,10.7784,12.7469,14.9454
		c3.7895,1.2961,8.3338,1.542,11.8119-0.771c5.266-2.9859,5.8892-9.6301,9.1048-14.2398c4.6098-1.9195,9.9743-0.1476,14.8795-0.935
		c1.5748-2.0016,2.0014-4.6264,3.1335-6.8739c3.4451-1.6898,7.3824-2.1326,10.7127-4.0685c2.6084-2.2804,4.5114-5.2334,6.923-7.727
		c3.6257,2.182,6.9394,4.8232,10.5486,7.0543c10.0398,6.5293,22.2454,8.3012,32.5151,14.371
		c-5.6271,2.9366-11.7626,4.7576-17.3403,7.8089c12.2547,0.0821,22.7703-7.251,34.5493-9.2197
		c7.6121,1.821,13.1735,7.8908,20.2604,10.7782c9.1871,1.5913,18.6694,1.4439,27.7413,3.8554
		c-4.0848,2.7395-9.0065,3.7076-13.3867,5.8894c16.5859-1.4929,33.8605-12.8452,50.0032-3.2975
		c-8.0056,4.134-18.1605,3.7402-25.2311,9.4821c15.9951-0.935,31.1207-7.0213,46.7385-10.0398
		c3.7896-0.7384,7.1035,2.0014,9.8432,4.2489c-0.3609,1.4929-0.8203,2.9692-1.214,4.4458
		c5.6761-1.6241,11.631-3.1827,17.5699-1.7553c12.6648,2.6412,25.6086,4.4786,37.6664,9.3838
		c9.0557,3.724,18.9646,4.2327,28.1677,7.4316c-8.58,4.823-17.9144,8.3995-27.2653,11.3851
		c-2.0999-0.7546-3.9866-1.9193-5.9389-2.9366c-4.134-2.7724-9.1867-0.2952-13.6163,0.1478
		c-18.1605,3.0842-36.2556,6.4636-54.3998,9.597c-3.7895,1.0171-6.7916-2.1161-10.1876-3.1335
		c-4.3801,0.3937-8.5799,2.5265-13.0421,1.7719c-11.6479-1.5913-23.4268-1.2797-35.1237-2.0342
		c-43.3592-3.3632-86.8495-5.2334-130.0771-9.9417c-3.4453-0.6398-4.7742-4.5771-7.2676-6.6442
		c-10.3354,0.0164-20.2933,3.7733-29.9889,7.0543c-9.3511,3.4779-19.3909,5.988-27.3476,12.2875
		c8.3176-1.2632,16.4874-3.5598,24.9197-4.1342c15.864-1.2961,31.941-3.4777,47.7557-0.7874
		c42.9324,3.7076,86.0126,4.7083,129.0436,6.6114c5.8732,0.443,11.6971,1.4437,17.439,2.8217
		c-3.2153,2.4279-6.9394,3.9864-10.4994,5.7583c9.4656-0.8695,18.6035-3.6255,27.9872-4.9708
		c6.1191-1.2961,11.861,2.6578,17.9801,1.7062c20.9824-2.8709,41.7186-7.6447,62.783-9.8267
		c-0.0328,2.9202-0.2952,5.8239-0.3609,8.7603c12.0416-4.5114,23.8041-9.8594,35.1401-15.9294
		c6.2996-3.1006,13.4522-3.4122,20.2769-4.4131c9.7446-1.1647,19.6206-3.9699,29.4474-1.8045
		c9.4822,2.2475,19.637,3.1991,27.9382,8.8096c5.0365,2.8381,9.1871,8.1534,8.8915,14.1742
		c-3.1497,6.2177-8.58,10.9752-11.3688,17.4059c-2.9366,6.1191-3.1825,13.0095-4.938,19.4732
		c-5.1346,5.8402-12.1561,9.5313-18.2262,14.2889c0.8531,0.3773,2.5427,1.1319,3.3958,1.5092
		c6.4637-0.9514,12.3696-4.3801,17.0453-8.8587c5.2167-4.8232,5.7909-12.3696,9.1702-18.2921
		c3.511-6.3322,6.6442-12.9107,8.3012-19.9979c1.4929-7.2182,8.7934-12.1397,8.4651-19.8832
		C805.5346-12.4618,804.6487-16.7762,803.1395-20.8449z M564.1641-44.2714c0.0657-0.7219,0.2133-2.1656,0.2954-2.8873
		c-0.6072-0.6236-1.8212-1.8704-2.428-2.5101c4.4293-0.0821,8.908-0.1478,13.3373,0.3444
		C572.0059-46.9128,568.0029-45.7153,564.1641-44.2714z"/>
	<path opacity="0.93" fill="#A7B9C2" stroke="#A7B9C2" stroke-width="0.0938" enable-background="new    " d="M741.7346-61.333
		c4.6919-0.4922,11.9102,0.5086,12.9109,6.1684c-4.2653-0.3117-8.5143-1.0335-12.6157-2.2311
		C741.9643-58.38,741.8166-60.3487,741.7346-61.333z"/>
	<path fill="#16252D" stroke="#16252D" stroke-width="0.0938" d="M562.0314-49.6688c4.4294-0.082,8.9081-0.1477,13.3375,0.3445
		c-3.363,2.4116-7.366,3.6091-11.2048,5.0528c0.0656-0.7218,0.2133-2.1655,0.2953-2.8873
		C563.8524-47.7822,562.6384-49.029,562.0314-49.6688z"/>
	<path opacity="0.93" fill="#A7B9C2" stroke="#A7B9C2" stroke-width="0.0938" enable-background="new    " d="M769.4431-49.7345
		c13.4851-1.0007,26.8062,1.7554,40.2585,1.903c6.152,0.607,12.2548,2.1819,18.4723,1.4765
		c10.2369-1.2796,17.0451,12.1891,11.5001,20.3753c-3.6912,6.2832-11.7626,3.1662-17.3732,6.152
		c2.1328-2.3624,4.6592-4.3966,6.5457-7.0051c0.361-4.9708,0.2297-11.4509-4.4951-14.4366
		c-7.1691-0.0984-14.2725-1.0007-21.2284-2.7069c-10.286-2.428-20.9659-1.7882-31.252,0.2132
		C770.2633-45.4199,769.4595-47.4049,769.4431-49.7345z"/>
	<path opacity="0.93" fill="#A7B9C2" stroke="#A7B9C2" stroke-width="0.0938" enable-background="new    " d="M805.3705-19.2863
		c1.1157-1.4109,5.1513-1.3452,4.938,0.9515C809.1601-16.8911,805.0425-16.8911,805.3705-19.2863z"/>
	<path opacity="0.93" fill="#A7B9C2" stroke="#A7B9C2" stroke-width="0.0938" enable-background="new    " d="M214.2073,42.8732
		c6.923-1.821,14.0921-2.6412,21.2448-2.7397c10.7618-0.4429,21.1136,3.2318,31.1536,6.6277
		c-17.7341-0.0656-35.5174-0.7874-53.153-2.428L214.2073,42.8732z"/>
	<path opacity="0.93" fill="#A7B9C2" stroke="#A7B9C2" stroke-width="0.0938" enable-background="new    " d="M421.6025,77.9804
		c6.9886,0.7874,13.9937,1.4765,21.0151,2.1655c-4.7903,0.689-12.468-1.903-14.0265,4.5443
		c-3.0842,10.0892-3.5927,20.7527-5.2661,31.1372c-3.6584,18.5872-5.6598,37.4696-7.7925,56.2372
		c0.4594,13.4031,4.3802,26.3305,5.7419,39.6351c3.0514,15.6342,4.4786,31.5473,8.0878,47.0995
		c3.281,26.9374,8.0058,53.6616,11.4673,80.5662c2.4279,23.1642,7.2511,45.9675,10.0892,69.0825
		c1.6897,12.5009,4.8067,24.854,5.4137,37.486c-0.1149,2.8709-0.2461,5.7418-0.4102,8.6292
		c-3.5107-8.0222-4.5114-16.799-6.9886-25.1329c-3.9537-13.3539-6.3325-27.1179-8.055-40.9311
		c-3.9865-29.513-8.6292-58.9276-14.4366-88.1454c-6.6933-38.2735-11.1391-76.8914-17.6192-115.2141
		c-1.378-7.3003,0.1969-14.6991,0.9351-21.983c2.4279-24.936,5.0856-49.8556,8.0058-74.7259
		C418.2722,84.7558,418.6495,80.5889,421.6025,77.9804z"/>
	<path opacity="0.93" fill="#A7B9C2" stroke="#A7B9C2" stroke-width="0.0938" enable-background="new    " d="M138.6447,229.6306
		c12.8453-20.0144,22.5244-42.588,39.5531-59.5675c0.3117,3.4779-0.1805,6.9887-1.7882,10.1221
		c-7.3331,15.6178-16.7498,30.12-25.5102,44.9504c-5.9551,10.483-11.7462,21.0808-17.9637,31.4161
		c-13.157,22.8361-24.0829,46.8534-36.3048,70.1817c-5.2497,9.6627-9.3346,19.9488-15.1092,29.2998
		c-0.6398-1.7554-1.214-3.5108-1.7553-5.2825c2.0999-10.4994,5.3317-20.7691,7.1035-31.3669
		c1.4109-9.4822,6.7261-17.7505,12.386-25.2477c6.3816-5.2661,8.7932-13.4359,12.8945-20.3261
		C120.1232,258.5695,130.2124,244.5922,138.6447,229.6306z"/>
	<path opacity="0.93" fill="#A7B9C2" stroke="#A7B9C2" stroke-width="0.0938" enable-background="new    " d="M335.442-131.3178
		c-6.365-24.0337-25.182-42.4896-30.9729-66.7529c1.8207-2.182,4.8559-2.8381,7.1689-4.3803
		c-5.5612-4.5114-13.0093-3.9701-19.6535-5.381c-4.7245-0.8367-9.2852-2.4115-14.0428-3.1006
		c-3.7733-0.5742-6.6278,2.5757-9.5313,4.4622c-4.7249,6.9558-8.9903,14.2234-13.0587,21.5894
		c-13.2061-2.4608-23.6893,8.1207-36.2227,9.7448c-12.0909,0.6725-24.5586-1.7391-36.1737,2.8052
		c-11.3523,2.2147-18.8168,11.5822-26.0351,19.7848c-4.5114,6.3979-9.2854,12.6155-13.5179,19.2105
		c-12.3368,23.6891-21.8027,49.1336-25.8056,75.6282c-5.0854,12.5665-3.1989,26.3796-3.5927,39.5859
		c0.4758,16.6512,1.0173,33.4009,3.8226,49.8388c0,0.0002,0,0.0002,0,0.0004c-0.5743,5.3481-0.1478,10.7453,0.5904,16.0442
		c0.2627,1.3125,0.7548,3.9375,1.0173,5.2498c-0.0328,11.8283,1.8374,23.6236,4.7083,35.0909
		c2.2804,13.3865,5.0363,26.675,8.2845,39.8648c1.4439,4.0848-2.0342,7.4807-3.3958,11.0899
		c-4.2982,8.8425,0.492,18.6692-1.0992,27.9053c-3.1004,16.8317-10.532,32.9581-10.2369,50.3149
		c-1.7391,4.3474-2.8545,8.9409-3.1661,13.6163c-3.7733,4.3474-5.1677,10.5158-6.7099,16.028
		c-2.1818,9.9908-5.8075,19.6699-6.7916,29.9067c0.3609,3.1335,0.8203,6.2504,1.5256,9.3346
		c4.938-3.8224,6.5457-10.0564,8.5471-15.6506c11.3854-31.3997,27.1344-61.044,44.9178-89.2775
		c3.0183-4.5606,6.0206-9.1376,8.5471-13.9936c-17.6192,12.7469-29.021,31.8098-40.5537,49.7899
		c0.6889-14.3546,2.0507-28.9552,6.3158-42.7028c1.9359,7.53,1.0009,15.3881,2.0999,23.0329
		c2.1984-4.2162,3.1827-8.9245,3.2646-13.6328c0.2954-11.5165-0.4265-23.0494,0.2135-34.5495
		c3.8223,0.2297,7.5626,1.0664,11.3523,1.5585c-7.9401-28.3646-11.0079-57.7629-15.3389-86.8166
		c-5.1164-33.1594-9.233-66.4501-13.7592-99.6915l0.5435-2.8881c0,0-0.0004,0-0.0004,0.0002
		c0.0793-0.0495,0.1586-0.0967,0.2395-0.1666c5.545-35.5338,20.4737-69.0004,38.864-99.6619
		c7.4809-11.6641,15.585-25.297,30.0874-28.7585c15.5193-3.1663,31.4323-3.7895,47.1158-5.709
		c8.055-2.1818,16.8811-2.4772,24.1978-6.8082c6.7918-6.2177,8.9736-15.8802,15.2077-22.6229
		c7.7104-0.8367,15.6835,0.5087,23.1806,2.4117c7.2841,12.5172,13.9281,25.5429,20.4083,38.5524
		c3.6912,7.1855,8.2517,13.928,11.4344,21.3759c4.5279,10.9916,7.3167,22.6393,12.3696,33.4177
		C340.4457-115.0439,337.7388-123.1316,335.442-131.3178z"/>
	<path opacity="0.93" fill="#A7B9C2" stroke="#A7B9C2" stroke-width="0.0938" enable-background="new    " d="M252.694,592.9905
		c6.1684-5.8895,11.5657-12.7633,18.9645-17.1927c-2.4279,3.6912-5.6106,6.9066-7.5628,10.9094
		c0.6398,1.296,1.2961,2.5921,1.9687,3.9045c-2.1327,0.8203-4.6591,1.0664-6.0864,3.0842
		c-8.2026,8.8752-14.3874,19.4238-22.8033,28.1186c-8.137,10.4666-17.2419,20.1129-25.1821,30.727
		c-36.6985,41.1116-70.0668,85.2582-99.0549,132.1116c-5.7911,5.0527-12.6649,8.7275-18.9317,13.1733
		c-0.525-0.3117-1.5749-0.9022-2.0999-1.1975c2.7889-4.2817,6.4637-7.8909,9.351-12.0907
		c14.0265-22.3112,30.1857-43.1951,44.9176-65.0305c9.8924-16.9794,22.951-31.7278,34.9104-47.1979
		C203.347,644.4702,227.315,618.0085,252.694,592.9905z"/>
	<path opacity="0.93" fill="#A7B9C2" stroke="#A7B9C2" stroke-width="0.0938" enable-background="new    " d="M-13.6125,715.4885
		c3.1006-2.3624,6.316-4.577,9.6627-6.5621c-5.9059,16.7662-13.239,33.1222-16.192,50.7906
		c-3.2154-6.3652-0.5414-13.5179-0.607-20.2277c-2.0342,2.4279-3.9373,5.02-5.1676,7.9729
		c-6.4309,17.4552-10.9095,35.7963-19.8176,52.2672c-6.316,12.0085-11.779,25.2149-22.508,34.0901
		c4.7247-14.3382,12.5008-27.446,18.0294-41.4724c-18.5051,21.5073-35.2221,44.491-51.857,67.4584
		c-14.5186,21.2447-23.0658,45.705-34.9924,68.3607c-12.7305,26.7405-27.1507,52.9398-36.19,81.2388
		c10.8111-4.3802,20.3589-11.3853,31.3833-15.3062c-9.1213,8.0714-19.4566,14.6171-29.5295,21.4253
		c-8.219,5.1512-15.4045,11.8282-24.0665,16.3068c-0.2625-7.4644,4.856-12.9929,9.1541-18.4395
		c9.187-18.7349,17.7997-37.8141,27.3147-56.4012c6.2668-14.6827,13.1242-29.0866,20.2605-43.3428
		c9.0393-19.4402,15.2897-40.8162,29.7263-57.1722c3.6748-5.5614,7.6613-10.8767,12.3039-15.6506
		c3.8552-5.9059,8.5635-11.1228,13.1406-16.4381c7.5136-10.9587,16.3232-20.9495,24.2306-31.6129
		c6.5785-11.2376,16.5037-20.1456,22.1635-31.9739C-29.9357,745.4281-24.0298,729.0884-13.6125,715.4885z"/>
	<path opacity="0.93" fill="#A7B9C2" stroke="#A7B9C2" stroke-width="0.0938" enable-background="new    " d="M-2.9327,860.7406
		c15.2241-9.3018,29.9724-19.5715,46.1808-27.0522c0.2789,0.6891,0.8531,2.0507,1.1319,2.7397
		c-9.3838,16.2904-22.1635,30.2349-32.4332,45.9183C4.745,893.9612-0.2422,906.7902-7.6738,918.2739
		c-21.9174,35.6978-42.6537,72.1011-64.0953,108.1107c-7.8253,12.2875-13.8953,25.5758-21.0315,38.2242
		c-3.3303,5.7253-11.3852,2.7725-15.667,7.1526c-4.7083,4.3474-7.9237,10.0073-11.0572,15.5359
		c-6.0535,10.6962-6.7097,23.2626-8.0878,35.2057c-0.7546-1.2797-1.5421-2.5265-2.3459-3.7405
		c0.771,13.3047-0.7546,26.6914,1.0171,39.9304c-0.4922,11.8938-9.3346,21.4745-17.2419,29.5623
		c-5.2497,5.6106-13.1734,5.7747-20.2769,4.9215c4.2818,0.0657,8.5143-0.7545,12.5008-2.2966
		c-13.1734-4.5115-23.6728-13.8953-34.5002-22.262c-12.2055-9.7611-19.8176-24.8212-20.9331-40.3569
		c0.6234,0.3281,1.8538,0.9679,2.4772,1.296c3.6584,14.3711,11.7626,27.8397,23.3447,37.2072
		c-0.082-3.4124-0.4265-6.7754-0.5414-10.1549c7.9566,6.4309,13.9281,16.4545,24.493,18.8004
		c5.6926,1.5093,9.3674-3.9044,12.7961-7.4152c4.3474-5.2168,10.9423-10.4174,9.9416-17.9966
		c-0.6726-7.6448-6.7754-12.7468-11.5821-18.0129c3.9209,0.0656,7.8253,0.525,11.7462,0.6069
		c0.2789-9.0884-10.4337-10.204-16.2576-14.2233c5.2333-3.5763,11.7626-1.214,17.6192-1.5914
		c0.6398-5.5449,0.689-11.4015-1.296-16.6676c-6.6277-9.6792-18.6692-12.3368-28.5123-17.406c8.137-1.3945,16.6185,0,23.6892,4.3473
		c2.7397,1.0172,5.545,3.8718,8.5636,3.0515c6.2012-8.0057,8.8752-17.9966,14.0757-26.5765
		c4.2162,0.8859,8.2026,2.6412,12.386,3.7239c-9.4494-6.0698-20.8019-8.1862-30.563-13.6982
		c9.7939,0.1804,18.5051,5.348,28.1186,6.4143c6.7426-0.41,11.172-6.3159,15.4209-10.8602
		c9.0229-10.0728,12.5008-23.3938,18.6692-35.1236c7.973-17.7341,18.7348-34.0081,28.0202-51.0367
		c5.7582-10.647,12.4188-20.7527,18.5707-31.1536c-2.8873,1.6568-5.6926,3.4779-8.6292,5.0856
		c4.1669-9.0721,10.3025-17.0287,15.7983-25.2969c11.9102-16.5693,23.9517-33.0566,35.5994-49.8064
		c1.7718-2.6084,3.3795-5.3317,4.7247-8.1862c-17.0123,7.5792-31.4981,20.3754-49.5439,25.625
		C-21.7495,872.2243-11.9391,867.0567-2.9327,860.7406z"/>
	<path opacity="0.93" fill="#A7B9C2" stroke="#A7B9C2" stroke-width="0.0938" enable-background="new    " d="M554.764,725.5286
		c-10.1878-16.11-19.7356-32.6793-26.8062-50.4133c-12.2547-25.6086-21.8026-52.3328-31.0552-79.1225
		c-11.9921-39.4383-30.2021-76.547-44.0152-115.3126c-1.05-3.0349-1.2796-6.2504-1.5258-9.4002
		c-1.8045,1.5584-3.6091,3.1334-5.1677,4.9379c2.0999,9.105,5.4302,17.9146,7.9239,26.9375
		c5.266,16.4217,12.96,31.9247,19.0301,48.0509c9.0065,21.7534,15.421,44.4419,23.6236,66.4905
		c12.4844,33.2863,25.4938,66.6873,44.3925,96.9386c3.6585,6.3325,9.8269,12.2876,8.662,20.2277
		c-3.0021,59.6331-19.473,117.3632-31.0716,175.651c-4.3965,34.2214-7.5955,68.5904-10.4828,102.9922
		c-3.1335,35.0743-6.5457,70.1325-8.2847,105.3054c-0.7576,15.322-1.5428,30.7269-2.1606,46.098
		c1.1805,2.2261,4.7714,1.892,6.4221-0.0118c1.6507-1.9038,1.8976-4.6117,2.0682-7.1256
		c2.6169-38.5771,12.3031-162.7662,14.7202-189.5662c1.8491-6.4695,1.4595-13.1107,2.4247-19.6519
		c1.0459-7.0889,2.3462-14.4489,2.8724-21.5856c1.0333-14.0101,5.3481-27.4296,7.8253-41.1937
		c3.2975-18.7183,8.465-37.043,11.8281-55.745c4.5936-27.0031,10.9586-53.8912,11.582-81.4029
		C558.537,740.9495,559.538,732.1891,554.764,725.5286z M511.5854,1051.4028c0-0.0001,0-0.0002,0-0.0004
		c0.3937,0.894,0.7648,1.8251,1.1483,2.7396C512.3502,1053.2277,511.9791,1052.2968,511.5854,1051.4028z"/>
	<path fill="#16252D" stroke="#16252D" stroke-width="0.0938" d="M-129.9585,1118.7625c0.8038,1.214,1.5913,2.4608,2.3459,3.7405
		c0.1148,12.0249,0.4593,24.2633-1.3288,36.1899C-130.7132,1145.4539-129.1875,1132.0671-129.9585,1118.7625z"/>
	<path opacity="0.93" fill="#A7B9C2" stroke="#A7B9C2" stroke-width="0.0938" enable-background="new    " d="M-191.8391,1134.4459
		c6.316-0.8203,12.5008,1.1155,18.702,1.985c7.1199,1.0663,14.7975,2.6412,19.8504,8.2518
		c-4.3638-0.1969-8.6784-0.771-13.0258-1.0499c2.0179,3.1826,5.4465,5.7091,6.3981,9.4166
		c-3.7076,5.4137-12.7797,5.6106-17.1763,0.8367C-182.9803,1148.3739-189.9197,1142.6321-191.8391,1134.4459z"/>
	<path opacity="0.93" fill="#A7B9C2" stroke="#A7B9C2" stroke-width="0.0938" enable-background="new    " d="M469.8831,1168.2079
		c3.1826-0.1968,6.398-0.361,9.5807,0c3.1826,3.5271,5.7254,7.6121,8.1534,11.697c5.5613,18.9808,19.4566,33.6635,32.3839,48.0017
		c7.0051,6.2996,12.5665,14.7483,21.7042,18.177c8.9409,3.8224,17.5372,8.3994,26.2812,12.6321
		c6.595,3.2646,14.6335,5.1677,18.5708,12.025c-0.7219-0.0657-2.1655-0.1804-2.8874-0.2461
		c1.2632,6.6934,2.5264,13.5343,1.575,20.3752c-1.6569,2.543-4.7739,2.1655-7.3987,2.2148
		c-0.2953-5.9551,1.8373-11.7954,1.132-17.7014c-0.2133-2.5754-2.7397-3.6418-4.6428-4.7574
		c-17.3075-8.5798-34.4182-17.6028-52.2014-25.1163c-9.105-2.0178-18.4232,0.246-27.5937,0.6398
		c4.9872-3.5107,11.0244-4.6427,16.799-6.1848c1.3944-0.5579,3.5108-0.5579,3.6584-2.4772
		c-3.0349-3.9209-6.6441-7.3496-9.6463-11.2869c-6.1028-7.2675-9.3182-16.5692-16.192-23.2297
		c-4.3638-4.3475-7.3167-9.8433-9.269-15.6343C477.5936,1180.4298,473.1806,1174.606,469.8831,1168.2079z"/>
</g>
</svg>
